<svg width="58" height="34" viewBox="0 0 58 34" fill="none" xmlns="http://www.w3.org/2000/svg">
<g clip-path="url(#clip0_58737_267)">
<path d="M1036.3 0C1021.9 0 1021.9 14 1007.6 14C993.3 14 993.2 0 978.9 0C964.6 0 964.5 14 950.2 14C935.8 14 935.8 0 921.4 0C907 0 907 14 892.7 14C878.3 14 878.3 0 864 0C849.6 0 849.6 14 835.3 14C821 14 820.6 0 806.3 0C791.9 0 791.9 14 777.6 14C763.3 14 763.1 0 748.8 0C734.4 0 734.4 14 720.1 14C705.7 14 705.7 0 691.3 0C676.9 0 676.9 14 662.6 14C648.2 14 648.2 0 633.9 0C619.6 0 619.4 14 605 14C590.6 14 590.6 0 576.3 0C561.9 0 561.9 14 547.6 14C533.2 14 533.2 0 518.8 0C504.4 0 504.4 14 490.1 14C475.7 14 475.7 0 461.4 0C447 0 447 14 432.7 14C418.3 14 418.3 0 404 0C389.6 0 389.6 14 375.2 14C360.8 14 360.8 0 346.4 0C332 0 332 14 317.6 14C303.2 14 303.2 0 288.8 0C274.4 0 274.4 14 260 14C245.6 14 245.6 0 231.2 0C216.8 0 216.8 14 202.4 14C188 14 188 0 173.6 0C159.2 0 159.2 14 144.9 14C130.5 14 130.5 0 116.1 0C101.7 0 101.7 14 87.3 14C72.9 14 72.9 0 58.5 0C44.1 0 44.1 14 29.7 14C15.3 14 15.3 0 0.900002 0C-13.1 0 -13.1 14 -27.5 14C-41.9 14 -41.9 0 -56.2 0C-70.5 0 -70.6 14 -85 14V34H1065V14C1050.6 14 1050.6 0 1036.3 0Z" fill="white"/>
</g>
<defs>
<clipPath id="clip0_58737_267">
<rect width="58" height="34" fill="white"/>
</clipPath>
</defs>
</svg>
