<svg width="116" height="24" fill="none" xmlns="http://www.w3.org/2000/svg"><g clip-path="url(#a)"><path d="M539.783 0c-9.641 0-9.641 9.882-19.216 9.882-9.575 0-9.642-9.882-19.217-9.882-9.574 0-9.641 9.882-19.216 9.882-9.642 0-9.642-9.882-19.284-9.882-9.641 0-9.641 9.882-19.216 9.882-9.642 0-9.642-9.882-19.217-9.882-9.641 0-9.641 9.882-19.216 9.882-9.575 0-9.843-9.882-19.418-9.882-9.641 0-9.641 9.882-19.216 9.882-9.575 0-9.709-9.882-19.284-9.882-9.641 0-9.641 9.882-19.216 9.882-9.642 0-9.642-9.882-19.284-9.882-9.641 0-9.641 9.882-19.216 9.882-9.642 0-9.642-9.882-19.217-9.882-9.574 0-9.708 9.882-19.35 9.882-9.642 0-9.642-9.882-19.217-9.882-9.641 0-9.641 9.882-19.216 9.882-9.642 0-9.642-9.882-19.284-9.882-9.641 0-9.641 9.882-19.216 9.882-9.642 0-9.642-9.882-19.217-9.882-9.641 0-9.641 9.882-19.216 9.882-9.642 0-9.642-9.882-19.217-9.882-9.641 0-9.641 9.882-19.283 9.882C87.492 9.882 87.492 0 77.85 0 68.21 0 68.21 9.882 58.567 9.882 48.925 9.882 48.925 0 39.283 0 29.642 0 29.642 9.882 20 9.882 10.358 9.882 10.358 0 .717 0c-9.642 0-9.642 9.882-19.284 9.882S-28.209 0-37.85 0c-9.642 0-9.642 9.882-19.217 9.882C-66.709 9.882-66.709 0-76.35 0c-9.642 0-9.642 9.882-19.284 9.882S-105.276 0-114.917 0c-9.642 0-9.642 9.882-19.284 9.882S-143.843 0-153.484 0c-9.374 0-9.374 9.882-19.016 9.882-9.642 0-9.642-9.882-19.217-9.882-9.574 0-9.641 9.882-19.283 9.882V24h770V9.882c-9.642 0-9.642-9.882-19.217-9.882Z" fill="#fff"/></g><defs><clipPath id="a"><path fill="#fff" d="M0 0h116v24H0z"/></clipPath></defs></svg>