<svg width="58" height="34" fill="none" xmlns="http://www.w3.org/2000/svg"><g clip-path="url(#a)"><path d="M1036.3 0c-14.4 0-14.4 14-28.7 14-14.3 0-14.4-14-28.7-14-14.3 0-14.4 14-28.7 14-14.4 0-14.4-14-28.8-14S907 14 892.7 14C878.3 14 878.3 0 864 0c-14.4 0-14.4 14-28.7 14-14.3 0-14.7-14-29-14-14.4 0-14.4 14-28.7 14-14.3 0-14.5-14-28.8-14-14.4 0-14.4 14-28.7 14-14.4 0-14.4-14-28.8-14s-14.4 14-28.7 14c-14.4 0-14.4-14-28.7-14-14.3 0-14.5 14-28.9 14-14.4 0-14.4-14-28.7-14-14.4 0-14.4 14-28.7 14-14.4 0-14.4-14-28.8-14s-14.4 14-28.7 14c-14.4 0-14.4-14-28.7-14C447 0 447 14 432.7 14 418.3 14 418.3 0 404 0c-14.4 0-14.4 14-28.8 14S360.8 0 346.4 0 332 14 317.6 14 303.2 0 288.8 0 274.4 14 260 14 245.6 0 231.2 0s-14.4 14-28.8 14S188 0 173.6 0s-14.4 14-28.7 14c-14.4 0-14.4-14-28.8-14s-14.4 14-28.8 14S72.9 0 58.5 0 44.1 14 29.7 14 15.3 0 .9 0c-14 0-14 14-28.4 14-14.4 0-14.4-14-28.7-14C-70.5 0-70.6 14-85 14v20h1150V14c-14.4 0-14.4-14-28.7-14Z" fill="#fff"/></g><defs><clipPath id="a"><path fill="#fff" d="M0 0h58v34H0z"/></clipPath></defs></svg>