<svg width="62" height="34" viewBox="0 0 62 34" fill="none" xmlns="http://www.w3.org/2000/svg">
<g clip-path="url(#clip0_58735_184)">
<path d="M749.804 0C734.152 0 734.152 14 718.609 14C703.065 14 702.957 0 687.413 0C671.87 0 671.761 14 656.217 14C640.565 14 640.565 0 624.913 0C609.261 0 609.261 14 593.717 14C578.065 14 578.065 0 562.522 0C546.87 0 546.87 14 531.326 14C515.783 14 515.348 0 499.804 0C484.152 0 484.152 14 468.609 14C453.065 14 452.848 0 437.304 0C421.652 0 421.652 14 406.109 14C390.456 14 390.456 0 374.804 0C359.152 0 359.152 14 343.609 14C327.956 14 327.957 0 312.413 0C296.87 0 296.652 14 281 14C265.348 14 265.348 0 249.804 0C234.152 0 234.152 14 218.609 14C202.956 14 202.956 0 187.304 0C171.652 0 171.652 14 156.109 14C140.456 14 140.457 0 124.913 0C109.261 0 109.261 14 93.7174 14C78.0652 14 78.0652 0 62.5217 0C46.8696 0 46.8696 14 31.2174 14C15.5652 14 15.5652 0 -0.0869751 0C-15.7391 0 -15.7391 14 -31.3913 14C-47.0435 14 -47.0435 0 -62.6957 0C-78.3478 0 -78.3478 14 -94 14C-109.652 14 -109.652 0 -125.304 0C-140.957 0 -140.957 14 -156.609 14C-172.261 14 -172.261 0 -187.913 0C-203.565 0 -203.565 14 -219.109 14C-234.761 14 -234.761 0 -250.413 0C-266.065 0 -266.065 14 -281.717 14C-297.37 14 -297.37 0 -313.022 0C-328.674 0 -328.674 14 -344.326 14C-359.978 14 -359.978 0 -375.63 0C-390.848 0 -390.848 14 -406.5 14C-422.152 14 -422.152 0 -437.696 0C-453.239 0 -453.348 14 -469 14V34H781V14C765.348 14 765.348 0 749.804 0Z" fill="white"/>
</g>
<defs>
<clipPath id="clip0_58735_184">
<rect width="62" height="34" fill="white"/>
</clipPath>
</defs>
</svg>
