<svg width="63" height="34" viewBox="0 0 63 34" fill="none" xmlns="http://www.w3.org/2000/svg">
<path d="M1063.8 0C1048.15 0 1048.15 14 1032.61 14C1017.07 14 1016.96 0 1001.41 0C985.87 0 985.761 14 970.217 14C954.565 14 954.565 0 938.913 0C923.261 0 923.261 14 907.717 14C892.065 14 892.065 0 876.522 0C860.87 0 860.87 14 845.326 14C829.783 14 829.348 0 813.804 0C798.152 0 798.152 14 782.609 14C767.065 14 766.848 0 751.304 0C735.652 0 735.652 14 720.109 14C704.456 14 704.456 0 688.804 0C673.152 0 673.152 14 657.609 14C641.956 14 641.957 0 626.413 0C610.87 0 610.652 14 595 14C579.348 14 579.348 0 563.804 0C548.152 0 548.152 14 532.609 14C516.956 14 516.956 0 501.304 0C485.652 0 485.652 14 470.109 14C454.456 14 454.457 0 438.913 0C423.261 0 423.261 14 407.717 14C392.065 14 392.065 0 376.522 0C360.87 0 360.87 14 345.217 14C329.565 14 329.565 0 313.913 0C298.261 0 298.261 14 282.609 14C266.957 14 266.957 0 251.304 0C235.652 0 235.652 14 220 14C204.348 14 204.348 0 188.696 0C173.043 0 173.043 14 157.391 14C141.739 14 141.739 0 126.087 0C110.435 0 110.435 14 94.8913 14C79.2391 14 79.2391 0 63.587 0C47.9348 0 47.9348 14 32.2826 14C16.6304 14 16.6304 0 0.978256 0C-14.6739 0 -14.6739 14 -30.3261 14C-45.9783 14 -45.9783 0 -61.6304 0C-76.8478 0 -76.8478 14 -92.5 14C-108.152 14 -108.152 0 -123.696 0C-139.239 0 -139.348 14 -155 14V34H1095V14C1079.35 14 1079.35 0 1063.8 0Z" fill="white"/>
</svg>
