<svg width="27" height="35" viewBox="0 0 27 35" fill="none" xmlns="http://www.w3.org/2000/svg"><path d="M13.7539.04443h-.0996l-13.44532 1.4V26.1444l13.44532 8 13.3457-8V1.44443l-13.2461-1.4ZM25.1077 12.1444 13.6543 5.34443v-.1h-.0996l-.0996-.1v.1L2.10129 12.1444V3.14443l11.45341-1.2 11.553 1.2v8.99997Zm-11.553-5.29997 11.4534 6.69997-4.4818 2.6-7.0712-4.2v1.4l5.8761 3.5-.8963.5-4.9798-3v1.4l3.7846 2.3-.7967.5-2.9879-1.8v1.4l1.8923 1.1-1.7927 1.1-11.35382-6.7L13.5547 6.84443ZM2.10129 15.1444l11.35381 6.8v1l-7.86799-4.7v1.4l7.96759 4.8v1.1l-7.96759-4.7v1.4l7.96759 4.8 8.0672-4.9v-5.2l3.3862-2v10l-11.4534 6.9-11.45341-6.8v-9.9Z" fill="#63D1BB"/></svg>