<svg width="116" height="24" viewBox="0 0 116 24" fill="none" xmlns="http://www.w3.org/2000/svg">
<g clip-path="url(#clip0_58737_256)">
<path d="M539.783 0C530.142 0 530.142 9.88235 520.567 9.88235C510.992 9.88235 510.925 0 501.35 0C491.776 0 491.709 9.88235 482.134 9.88235C472.492 9.88235 472.492 0 462.85 0C453.209 0 453.209 9.88235 443.634 9.88235C433.992 9.88235 433.992 0 424.417 0C414.776 0 414.776 9.88235 405.201 9.88235C395.626 9.88235 395.358 0 385.783 0C376.142 0 376.142 9.88235 366.567 9.88235C356.992 9.88235 356.858 0 347.283 0C337.642 0 337.642 9.88235 328.067 9.88235C318.425 9.88235 318.425 0 308.783 0C299.142 0 299.142 9.88235 289.567 9.88235C279.925 9.88235 279.925 0 270.35 0C260.776 0 260.642 9.88235 251 9.88235C241.358 9.88235 241.358 0 231.783 0C222.142 0 222.142 9.88235 212.567 9.88235C202.925 9.88235 202.925 0 193.283 0C183.642 0 183.642 9.88235 174.067 9.88235C164.425 9.88235 164.425 0 154.85 0C145.209 0 145.209 9.88235 135.634 9.88235C125.992 9.88235 125.992 0 116.417 0C106.776 0 106.776 9.88235 97.1339 9.88235C87.4922 9.88235 87.4922 0 77.8504 0C68.2087 0 68.2087 9.88235 58.567 9.88235C48.9252 9.88235 48.9252 0 39.2835 0C29.6417 0 29.6417 9.88235 20 9.88235C10.3583 9.88235 10.3583 0 0.716522 0C-8.92521 0 -8.92523 9.88235 -18.567 9.88235C-28.2087 9.88235 -28.2087 0 -37.8504 0C-47.4922 0 -47.4922 9.88235 -57.067 9.88235C-66.7087 9.88235 -66.7087 0 -76.3504 0C-85.9922 0 -85.9922 9.88235 -95.6339 9.88235C-105.276 9.88235 -105.276 0 -114.917 0C-124.559 0 -124.559 9.88235 -134.201 9.88235C-143.843 9.88235 -143.843 0 -153.484 0C-162.858 0 -162.858 9.88235 -172.5 9.88235C-182.142 9.88235 -182.142 0 -191.717 0C-201.291 0 -201.358 9.88235 -211 9.88235V24H559V9.88235C549.358 9.88235 549.358 0 539.783 0Z" fill="white"/>
</g>
<defs>
<clipPath id="clip0_58737_256">
<rect width="116" height="24" fill="white"/>
</clipPath>
</defs>
</svg>
