<svg width="114" height="46" viewBox="0 0 114 46" fill="none" xmlns="http://www.w3.org/2000/svg"><path d="M110.889 41.8087c4.423.8981.804-35.82209.1-38.21688-2.01-6.58569-26.8421-2.09545-32.3714-1.69632-12.7678.99783-25.3346-.99783-37.8007-.39913-6.2331.29935-35.08634-1.7961-37.70022 1.99566C-1.91001 10.6764.40227 29.2361 1.80974 38.5159c-4.02135.7983 2.31228 4.1909 3.11655 4.8894 6.33361 2.1952 16.48751-.1996 23.12281.3991 15.4822 1.4967 31.9697-2.1952 47.5524-.9978 4.5241 1.0976 9.6513.9978 14.2758 1.1974 3.5187 5.5878 19.8047-2.3948 21.0117-2.1953-.101 0 .503.0998 0 0Z" fill="#000"/><path d="M26.2395 24.3475c-.1005-2.4945-.5027-5.0889-.5027-7.5835 0-2.0954.4022-4.1909-.3016-6.1865 0-.1996.1006-.3992.1006-.6985.201-.99783-3.1166-.49892-3.6193.3991-.3016.2994-.5026.5987-.4021.8981 0 .0998.1005.1995.1005.1995-.6032 2.9935-1.508 5.987-2.5133 8.8807-.4021 1.0977-.8043 2.1953-1.2064 3.3927-.6032-.9979-1.1059-2.0955-1.6086-3.1931-1.3069-3.2928-2.5133-6.5857-4.1218-9.679.201-1.4967-3.01605-1.29714-3.71979 0-.80427 1.5966-.70374 3.1931-.40214 4.8894.30161 1.8959.3016 3.7918.40214 5.7874 0 3.7918.3016 7.4838.40213 11.2755-.3016.3992-.40213.7983-.10053 1.2972.20107.1996.3016.3991.50267.4989.90482.6985 3.31762.0998 3.31762-1.1974 0-3.8915-.3016-7.7831-.4021-11.6746v-1.0976c.1005.0998.1005.2993.201.3991.6032 1.4968 1.2064 2.9935 2.1112 4.3905.8043 1.3969 1.2064 2.8937 1.7091 4.3904-.2011.1996-.3016.3992-.2011.6985 0 .1996.1006.2994.2011.2994.6032.4989 1.7091.2993 2.4128 0 .3016-.0998.5027-.1996.8043-.3992.3016-.1995.8043-.5987.7037-1.0976 0-.0998-.1005-.1996-.1005-.2993.4021-1.1974.7037-2.4946.9048-3.692.3016-1.397.7037-2.5944 1.2064-3.8915 0 .5987.1005 1.1973.1005 1.796.2011 2.3948 0 4.7896 0 7.1844 0 .7983.1006 1.4968.2011 2.295.1005.2994.3016 1.6964.3016 1.7961-.6032.499-.4021 1.1974.4021 1.397.9048.1996 2.0107-.0998 2.6139-.6985 1.1059-.9978.6032-2.6941.3016-3.9913-.3016-1.9957.3016-4.4902.2011-6.7853ZM34.1817 25.046c-.1006-1.8959-.7038-3.6919-.7038-5.5878 0-2.1953.2011-4.3905-.1005-6.4859-.1005-.6985-3.8203.0998-3.7198.9978.3016 1.9957.2011 3.9913.2011 5.987 0 1.8959.4021 3.692.7037 5.5878.3016 1.9957-.1005 3.8916.1006 5.8872.1005.8981.7037 2.5944.1005 3.3927-.4021.4989 1.4075.2993 1.508.2993.7038-.0998 1.7091-.3991 2.2118-.9978.6032-.7983.201-2.295.1005-3.1931-.5027-1.8959-.3016-3.9913-.4021-5.8872ZM49.7644 21.853c-2.0107-2.5944-5.6299-.6985-8.1432-1.4968-1.307-.3991-1.307-2.1952-1.307-3.193 0-1.397-.1005-2.5944-.3016-3.8916-.1005-.9978 0-1.9956.7038-2.7939.1005-.0998.8042-.2994.8042-.2994.3016-.0997.6032-.0997 1.0054-.0997 1.508-.09982 4.4234.1995 3.8202 2.3948-.3016.9978 3.4182.3991 3.7198-.5987 1.2064-4.3905-6.9368-3.49245-9.2491-2.89375-2.1112.5987-4.4235 1.79605-4.524 4.19085-.1006 1.1974.3016 2.2951.3016 3.3927.1005 1.2971-.2011 2.5943.3016 3.8915 1.0053 2.7939 5.2277 1.4968 7.4395 1.6963 3.6192.2994 2.6139 5.1887 2.6139 7.4837 0 1.1974 1.1058 3.2929.201 4.2907-.6032.5987-1.9101.6985-2.6139.6985-.8042.0998-2.1112.2994-2.6138-.3991-.9048-1.2972.1005-3.5922-.1006-5.089-.1005-.898-3.9208-.0998-3.7197.9979.3016 2.4945-1.307 5.7874 2.3123 6.2863 2.3122.2993 4.9261-.1996 7.1379-.8981 1.1058-.3991 2.2117-.898 3.1165-1.6963 1.0053-.898.7037-2.1952.4021-3.3926-.8042-2.9935.5027-6.1865-1.3069-8.5813ZM66.3525 21.6534c-.1005-3.5922-.7037-7.0846-.7037-10.6768 0-1.89587-3.8203-1.19739-3.8203.2994 0 3.3926.5026 6.7852.6032 10.1778v.1996c-1.8096 0-3.7198.1996-5.6299.1996.201-4.3905-.6032-8.7809-.4022-13.07162 0-.5987-3.7197-.09978-3.7197.99783-.2011 4.19089.6032 8.48159.4021 12.67249-.1005 1.9956-.201 3.9913-.201 6.0867 0 .9979.201 2.0955.3016 3.0933.1005.8981.5026 2.1952.201 3.0933-.201.6985 3.4182.2993 3.7198-.6985.5026-1.6963-.2011-3.7918-.4022-5.4881-.201-1.5965 0-3.2928.1006-4.9891 1.9101-.0998 3.9208-.2994 5.8309 0 .1006 1.2972.2011 2.5943.3016 3.8915.1006 1.0976.2011 2.1952.2011 3.2929 0 .9978.1005 2.3948-.2011 3.2928-.7037 1.9957 3.016 1.7961 3.5187.2994.7038-1.7961.5027-3.9914.4022-5.7875-.1006-2.1952-.5027-4.59-.5027-6.885ZM82.4378 25.9441c-.9048-2.5944-2.3122-4.8894-3.4181-7.384 1.0053-1.8959 1.9101-3.6919 2.8149-5.5878.8043-1.6963 1.4075-3.59222 2.9155-4.78961.5027-.39914.5027-.79827-.201-.89805-.8043-.09979-2.0107.19956-2.6139.69848-1.4075 1.09761-2.3123 2.39478-3.016 4.09108-.9048 1.8959-1.8096 3.8916-2.815 5.7874-.1005.0998-.1005.2994-.201.3992-.5027.2993-.7038.6985-.6032 1.1974-.8043 1.4967-1.5081 2.9935-2.4129 4.3904-.3016-5.2885-.9048-10.4772-1.1058-15.7657 0-1.19739-3.8203-.49891-3.7198.99783.2011 6.48587 1.2064 12.97177 1.2064 19.45767-.3016.2994-.201.499.1006.5987 0 1.6963-.1006 3.2929-.2011 4.9892-.4021.6985.4021 1.0976 1.0053 1.0976h.1006c.7037 0 2.5133-.2993 2.6138-1.2972.2011-1.9956.2011-3.9913.2011-5.987 1.508-1.5965 2.7144-3.3926 3.8203-5.2885.7037 1.397 1.4075 2.794 1.9101 4.2907.8043 2.5944 2.2118 4.9892 3.016 7.5835.5027 1.6963 4.2225.6985 3.7198-.9978-.9048-2.5944-2.2117-4.9892-3.1166-7.5835ZM104.857 21.5536c-.201-.7982-1.307-.7982-2.212-.6985v-.9978c-.1-2.4946-.201-5.0889-.402-7.5835-.201-2.29502-1.508-3.19307-3.8202-3.09328-2.3123.09978-5.0267.49891-7.1379 1.29718-2.5133.9978-3.9208 2.7939-4.3229 5.3883-.5027 2.8937.201 5.8872.4021 8.7809.1005 3.2928.1005 6.6855.1005 9.9783 0 .4989 3.7198 0 3.7198-.9978v-7.8829c0-.7983 0-1.4967-.1005-2.295 1.3069-.5987 3.5186 0 4.8256.0998 1.1058.0998 2.1112-.1996 3.1165-.2994 0 2.1953.1006 4.3905.2011 6.5857 0 1.0976.5027 3.3926-.3016 4.2907-.4021.4989 1.4075.2993 1.5075.2993.805-.0997 1.71-.3991 2.212-.9978.905-1.0976.402-3.5922.402-4.8894-.1-1.7961-.1-3.5922-.1-5.3883.905-.0997 2.111-.7982 1.91-1.5965Zm-13.8737-.1995c-.1005-1.1974-.201-2.3948-.3016-3.5922-.201-2.1953.1006-5.2885 2.2118-6.5857.6032-.3992 1.6085-.2994 2.2117-.3992.9048-.1995 1.9101-.3991 2.7144.1996 1.1059.7983.9048 3.4924.9048 4.59 0 1.8959.2011 3.7918.3016 5.6877-.5026.0998-1.1058.0998-1.6085.0998-2.2118-.0998-4.4235-.3992-6.4342 0ZM30.9646 10.3779c.5027 0 1.0053-.1996 1.4075-.4989.1005-.09979.201-.09978.201-.19957.5027-.29935.9048-.79826.7038-1.29718-.5027-.99783-.4022-2.09544-.4022-3.19306 0-.89804-.9048-1.19739-1.709-1.09761-.7038.09978-2.1112.5987-2.1112 1.39696 0 .89805-.1006 1.89588.1005 2.79393 0 .09978-.1005.19957-.1005.29935-.1006.19956 0 .39913.1005.5987v.39913c.1005.19957.2011.39913.4021.49895.5027.2993 1.0054.2993 1.4075.2993Z" fill="#fff"/></svg>