<svg width="63" height="34" fill="none" xmlns="http://www.w3.org/2000/svg"><path d="M1063.8 0c-15.65 0-15.65 14-31.19 14-15.54 0-15.65-14-31.2-14-15.54 0-15.649 14-31.193 14-15.652 0-15.652-14-31.304-14s-15.652 14-31.196 14c-15.652 0-15.652-14-31.195-14-15.652 0-15.652 14-31.196 14-15.543 0-15.978-14-31.522-14-15.652 0-15.652 14-31.195 14-15.544 0-15.761-14-31.305-14-15.652 0-15.652 14-31.195 14-15.653 0-15.653-14-31.305-14s-15.652 14-31.195 14c-15.653 0-15.652-14-31.196-14C610.87 0 610.652 14 595 14c-15.652 0-15.652-14-31.196-14-15.652 0-15.652 14-31.195 14-15.653 0-15.653-14-31.305-14s-15.652 14-31.195 14c-15.653 0-15.652-14-31.196-14-15.652 0-15.652 14-31.196 14-15.652 0-15.652-14-31.195-14-15.652 0-15.652 14-31.305 14-15.652 0-15.652-14-31.304-14s-15.652 14-31.304 14-15.652-14-31.305-14C235.652 0 235.652 14 220 14S204.348 0 188.696 0c-15.653 0-15.653 14-31.305 14S141.739 0 126.087 0s-15.652 14-31.196 14C79.24 14 79.24 0 63.587 0S47.935 14 32.283 14C16.63 14 16.63 0 .978 0s-15.652 14-31.304 14S-45.978 0-61.63 0C-76.848 0-76.848 14-92.5 14c-15.652 0-15.652-14-31.196-14-15.543 0-15.652 14-31.304 14v20h1250V14c-15.65 0-15.65-14-31.2-14Z" fill="#fff"/></svg>